<?xml version="1.0" encoding="utf-8"?>
<!-- Generator: Adobe Illustrator 28.0.0, SVG Export Plug-In . SVG Version: 6.00 Build 0)  -->
<svg version="1.1" id="_图层_2" xmlns="http://www.w3.org/2000/svg" xmlns:xlink="http://www.w3.org/1999/xlink" x="0px" y="0px"
	 viewBox="0 0 196.2 197.8" style="enable-background:new 0 0 196.2 197.8;" xml:space="preserve">
<style type="text/css">
	.st0{fill:url(#SVGID_1_);}
	.st1{fill:url(#SVGID_00000114777847584586726880000003145313373661809804_);}
	.st2{fill:url(#SVGID_00000083806393555766133970000018047839579327243657_);}
	.st3{fill:url(#SVGID_00000134930920180437439330000016551688545200915127_);}
</style>
<g>
	
		<linearGradient id="SVGID_1_" gradientUnits="userSpaceOnUse" x1="-3114.657" y1="445.4234" x2="-2989.8606" y2="445.4234" gradientTransform="matrix(-0.666 -0.7459 0.7459 -0.666 -2254.4458 -1884.4427)">
		<stop  offset="0" style="stop-color:#2CA4A7"/>
		<stop  offset="1" style="stop-color:#3DD595"/>
	</linearGradient>
	<path class="st0" d="M80.8,41.7C80.8,41.7,80.8,41.7,80.8,41.7C80.8,41.7,80.8,41.7,80.8,41.7c23.5-6.3,49.5,0.8,66.3,20.7
		c22.5,26.5,19.7,66.6-6.2,89.8c-6.5,5.9-13.9,10.2-21.7,12.9c-3.5,1.2-7.2,1.9-10.8,1.8h-0.1c10.3-4.3,18.9-11.8,22.1-24.2
		c9.4-35.9-25-67.4-30.5-72.1c-0.1-0.1-0.2-0.2-0.3-0.3c-0.1,0-0.1-0.1-0.1-0.1c-0.1,0-0.1-0.1-0.1-0.1C99.3,70,99.2,70,99.2,70
		c-0.1,0-0.1-0.1-0.1-0.1c-6.2-5.2-14.2-9.7-24-13.7C59.7,49.6,79.5,42.3,80.8,41.7L80.8,41.7z"/>
	
		<linearGradient id="SVGID_00000086664718171569590280000015464353760440973962_" gradientUnits="userSpaceOnUse" x1="-3097.7859" y1="396.4581" x2="-3051.9111" y2="456.6835" gradientTransform="matrix(-0.666 -0.7459 0.7459 -0.666 -2254.4458 -1884.4427)">
		<stop  offset="0" style="stop-color:#39BEA4"/>
		<stop  offset="1" style="stop-color:#86F0CA"/>
	</linearGradient>
	<path style="fill:url(#SVGID_00000086664718171569590280000015464353760440973962_);" d="M99.9,70.6c5.4,4.7,39.9,36.3,30.5,72.1
		c-3.3,12.4-11.9,19.9-22.1,24.2c-5.9-0.1-11.4-1.4-15.2-5c-12.6-11.6,5.4-32.5,5.4-32.5s19.7-21.5,14.4-39.3
		C110.4,82.4,106.1,76,99.9,70.6L99.9,70.6z"/>
</g>
<g>
	
		<linearGradient id="SVGID_00000167358095653765357650000017798040997531664535_" gradientUnits="userSpaceOnUse" x1="33.9795" y1="999.4532" x2="158.7981" y2="999.4532" gradientTransform="matrix(1 0 0 1 0 -880)">
		<stop  offset="0" style="stop-color:#63B72F"/>
		<stop  offset="1" style="stop-color:#D0E076"/>
	</linearGradient>
	<path style="fill:url(#SVGID_00000167358095653765357650000017798040997531664535_);" d="M156.4,133.1
		C156.4,133.1,156.4,133.1,156.4,133.1C156.4,133.2,156.4,133.2,156.4,133.1c-10.9,21.7-33.5,36.3-59.5,35.6
		C62.1,167.8,34.1,139,34,104.3c0-8.8,1.7-17.2,4.8-24.8c1.4-3.4,3.4-6.6,5.9-9.3l0.1-0.1c-3.6,10.5-3.8,21.9,3.3,32.6
		c20.5,30.9,67,26.3,74.1,25.4c0.1,0,0.3-0.1,0.4-0.1c0.1,0,0.1,0,0.1,0s0.1,0,0.1,0c0.1,0,0.1,0,0.2,0c0.1,0,0.1,0,0.1,0
		c8-1.1,16.7-4.1,26.3-8.7C164.6,112.1,156.9,131.8,156.4,133.1L156.4,133.1z"/>
	
		<linearGradient id="SVGID_00000072969899847202875080000001964193435734110880_" gradientUnits="userSpaceOnUse" x1="50.8155" y1="950.4716" x2="96.6903" y2="1010.6969" gradientTransform="matrix(1 0 0 1 0 -880)">
		<stop  offset="0" style="stop-color:#9ACA61"/>
		<stop  offset="1" style="stop-color:#B7D88E"/>
	</linearGradient>
	<path style="fill:url(#SVGID_00000072969899847202875080000001964193435734110880_);" d="M122.2,128.1c-7.1,0.9-53.6,5.6-74.1-25.4
		c-7.1-10.7-6.9-22.1-3.3-32.6c4-4.2,8.7-7.5,13.9-8c17.1-1.6,20.7,25.6,20.7,25.6s2.9,29,19.7,36.9
		C106.3,128.1,114,129.1,122.2,128.1z"/>
</g>
</svg>
